<?xml version="1.0" encoding="UTF-8"?>
<svg xmlns="http://www.w3.org/2000/svg" xmlns:xlink="http://www.w3.org/1999/xlink" width="214.67pt" height="208.67pt" viewBox="0 0 214.67 208.67" version="1.1">
<g id="surface1">
<path style=" stroke:none;fill-rule:evenodd;fill:rgb(94.099426%,29.798889%,14.099121%);fill-opacity:1;" d="M 70.976563 78.605469 C 63.539063 78.628906 57.675781 86.480469 57.582031 92.929688 L 84.582031 92.929688 C 84.582031 88.496094 81.25 78.585938 70.976563 78.605469 "/>
<path style=" stroke:none;fill-rule:evenodd;fill:rgb(94.099426%,29.798889%,14.099121%);fill-opacity:1;" d="M 140.757813 78.964844 C 136.042969 78.964844 132.066406 81.035156 128.824219 85.179688 C 125.585938 89.324219 123.964844 94.433594 123.964844 100.511719 C 123.964844 106.585938 125.585938 111.699219 128.824219 115.84375 C 132.066406 119.988281 136.042969 122.058594 140.757813 122.058594 C 145.46875 122.058594 149.449219 119.988281 152.691406 115.84375 C 155.933594 111.699219 157.554688 106.585938 157.554688 100.511719 C 157.554688 94.433594 155.933594 89.324219 152.691406 85.179688 C 149.449219 81.035156 145.46875 78.964844 140.757813 78.964844 "/>
<path style=" stroke:none;fill-rule:evenodd;fill:rgb(94.099426%,29.798889%,14.099121%);fill-opacity:1;" d="M 74.175781 11.585938 C 41.265625 11.585938 14.582031 38.269531 14.582031 71.179688 L 14.582031 92.835938 L 19.582031 92.835938 L 19.582031 71.148438 L 19.609375 71.148438 C 19.609375 41.804688 42.789063 17.886719 71.832031 16.671875 L 71.832031 16.585938 L 83.917969 16.585938 L 83.917969 33.335938 L 74.144531 33.335938 L 74.144531 33.347656 C 53.269531 33.347656 36.34375 50.273438 36.34375 71.148438 L 36.25 71.148438 L 36.257813 92.835938 L 41.632813 92.835938 C 42.410156 87.800781 43.894531 83.15625 45.855469 79.421875 C 48.785156 73.835938 52.015625 70.355469 56.6875 67.585938 C 61.355469 64.816406 66.59375 63.085938 71.519531 63.085938 C 76.488281 63.085938 81.320313 64.171875 85.6875 66.921875 C 90.054688 69.671875 95.128906 73.304688 97.855469 79.585938 C 102.019531 88.585938 100.453125 95.628906 100.933594 106.105469 L 57.582031 106.085938 C 57.105469 110.261719 60.503906 115.265625 63.355469 118.085938 C 66.207031 120.90625 71.714844 121.921875 75.519531 121.921875 C 78.382813 121.921875 80.882813 120.472656 83.28125 119.230469 C 85.675781 117.992188 85.4375 117.707031 88.519531 115.253906 L 100.453125 124.230469 C 96.617188 129.003906 92.617188 132.542969 88.453125 134.84375 C 84.289063 137.144531 79.308594 138.296875 73.519531 138.296875 C 67.003906 138.296875 61.320313 136.570313 56.46875 133.128906 C 51.617188 129.683594 47.914063 125.0625 45.355469 119.265625 C 43.519531 115.101563 42.097656 110.707031 41.433594 106.085938 L 36.261719 106.085938 L 36.277344 145.085938 L 178.269531 145.085938 L 178.269531 62.421875 L 195.082031 62.421875 L 195.082031 192.023438 L 19.582031 192.023438 L 19.582031 106.085938 L 14.582031 106.085938 L 14.582031 197.085938 L 200.082031 197.085938 L 200.082031 11.585938 Z M 165.914063 125.671875 C 159.617188 133.523438 149.4375 138.296875 141.453125 138.296875 C 132.507813 138.296875 125.066406 135.511719 119.132813 129.941406 C 111.464844 122.726563 107.632813 111.765625 107.632813 97.0625 L 107.582031 33.421875 L 124.914063 33.421875 L 124.914063 67.671875 C 128.332031 65.546875 131.207031 64.671875 134.582031 63.671875 C 136.988281 62.957031 139.625 62.921875 142.457031 62.921875 C 150.945313 62.921875 158.90625 67.097656 165.25 74.171875 C 171.59375 81.242188 173.582031 89.78125 173.582031 100.367188 C 173.582031 110.6875 171.664063 118.554688 165.914063 125.671875 Z M 186.742188 58.105469 C 181.226563 58.105469 176.753906 53.632813 176.753906 48.117188 C 176.753906 42.601563 181.226563 38.128906 186.742188 38.128906 C 192.257813 38.128906 196.730469 42.601563 196.730469 48.117188 C 196.730469 53.632813 192.257813 58.105469 186.742188 58.105469 "/>
<path style=" stroke:none;fill-rule:nonzero;fill:rgb(94.099426%,29.798889%,14.099121%);fill-opacity:1;" d="M 48.929688 167.101563 C 52.972656 167.101563 55.539063 170.589844 55.539063 175.21875 C 55.539063 179.753906 52.929688 183.238281 48.929688 183.238281 C 44.84375 183.238281 41.976563 179.515625 41.976563 174.835938 C 41.976563 170.347656 45.09375 167.101563 48.929688 167.101563 Z M 36.417969 149.921875 L 36.417969 187.921875 L 41.917969 187.921875 L 41.917969 184.28125 C 43.769531 187.425781 46.566406 188.335938 49.519531 188.335938 C 57.394531 188.335938 61.082031 181.078125 61.082031 174.585938 C 61.082031 167.855469 57.375 161.835938 49.25 161.835938 C 46.378906 161.835938 44.25 162.921875 41.917969 165.003906 L 41.917969 149.921875 L 36.417969 149.921875 "/>
<path style=" stroke:none;fill-rule:nonzero;fill:rgb(94.099426%,29.798889%,14.099121%);fill-opacity:1;" d="M 77.445313 149.980469 L 83.007813 149.980469 L 83.007813 187.855469 L 77.445313 187.855469 L 77.445313 149.980469 "/>
<path style=" stroke:none;fill-rule:nonzero;fill:rgb(94.099426%,29.798889%,14.099121%);fill-opacity:1;" d="M 90.917969 179.835938 C 91.582031 181.835938 93.210938 182.671875 94.894531 182.671875 C 96.371094 182.671875 97.507813 181.714844 97.507813 179.945313 C 97.507813 178.363281 96.582031 177.742188 95.394531 177.261719 C 94.585938 176.878906 93.78125 176.636719 92.972656 176.351563 C 90.707031 175.539063 87.167969 174.507813 87.167969 169.335938 C 87.167969 165.691406 90.582031 162.003906 94.75 162.003906 C 98.429688 162.003906 101.226563 164.167969 101.914063 166.753906 L 96.882813 168.644531 C 96.796875 167.589844 96.203125 166.535156 94.757813 166.535156 C 93.226563 166.535156 92.632813 167.636719 92.632813 168.785156 C 92.632813 170.894531 94.886719 171.371094 96.242188 171.707031 C 98.761719 172.386719 103.070313 174.167969 103.070313 179.558594 C 103.070313 184.691406 99.746094 188.253906 94.667969 188.253906 C 92.875 188.253906 87.734375 187.226563 86.417969 182.335938 L 90.917969 179.835938 "/>
<path style=" stroke:none;fill-rule:nonzero;fill:rgb(94.099426%,29.798889%,14.099121%);fill-opacity:1;" d="M 107.890625 167.480469 L 105.699219 167.480469 L 105.699219 162.375 L 107.890625 162.375 L 107.890625 153.855469 L 113.453125 153.855469 L 113.453125 162.375 L 117.625 162.375 L 117.625 167.480469 L 113.453125 167.480469 L 113.453125 187.855469 L 107.890625 187.855469 L 107.890625 167.480469 "/>
<path style=" stroke:none;fill-rule:nonzero;fill:rgb(94.099426%,29.798889%,14.099121%);fill-opacity:1;" d="M 124.707031 171.792969 C 125.636719 168.636719 127.933594 166.535156 131.011719 166.535156 C 133.878906 166.535156 136.363281 168.449219 137.164063 171.792969 Z M 142.851563 176.125 C 142.980469 176.464844 142.980469 175.558594 142.980469 174.605469 C 142.980469 167.839844 138.222656 161.960938 131.269531 161.960938 C 122.847656 161.960938 118.832031 168.777344 118.832031 174.835938 C 118.832031 180.898438 122.785156 188.253906 131.164063 188.253906 C 132.671875 188.253906 139.96875 187.21875 142 181.316406 L 138.664063 178.898438 C 136.757813 181.554688 135.25 183.171875 130.714844 182.671875 C 127.722656 182.671875 125.320313 180.664063 124.605469 176.125 L 142.851563 176.125 "/>
<path style=" stroke:none;fill-rule:nonzero;fill:rgb(94.099426%,29.798889%,14.099121%);fill-opacity:1;" d="M 157.394531 162.355469 L 162.898438 162.335938 L 162.898438 164.171875 C 163.808594 162.84375 166.488281 161.960938 169.007813 161.960938 C 174.398438 161.960938 178.078125 164.902344 178.363281 172.375 L 178.363281 187.855469 L 172.800781 187.855469 L 172.800781 173.808594 C 172.519531 167.875 170.019531 166.535156 167.820313 166.535156 C 163.253906 166.535156 162.953125 171.464844 162.953125 173.808594 L 162.953125 187.855469 L 157.394531 187.855469 L 157.394531 162.355469 "/>
<path style=" stroke:none;fill-rule:nonzero;fill:rgb(94.099426%,29.798889%,14.099121%);fill-opacity:1;" d="M 65.632813 162.394531 L 71.195313 162.394531 L 71.195313 187.894531 L 65.632813 187.894531 L 65.632813 162.394531 "/>
<path style=" stroke:none;fill-rule:nonzero;fill:rgb(94.099426%,29.798889%,14.099121%);fill-opacity:1;" d="M 68.5 152.734375 C 66.480469 152.734375 64.847656 154.367188 64.847656 156.386719 C 64.847656 158.402344 66.480469 160.039063 68.5 160.039063 C 70.519531 160.039063 72.152344 158.402344 72.152344 156.386719 C 72.152344 154.367188 70.519531 152.734375 68.5 152.734375 "/>
<path style=" stroke:none;fill-rule:nonzero;fill:rgb(94.099426%,29.798889%,14.099121%);fill-opacity:1;" d="M 146.8125 162.355469 L 152.375 162.355469 L 152.375 187.855469 L 146.8125 187.855469 L 146.8125 162.355469 "/>
<path style=" stroke:none;fill-rule:nonzero;fill:rgb(94.099426%,29.798889%,14.099121%);fill-opacity:1;" d="M 149.679688 152.691406 C 147.660156 152.691406 146.027344 154.328125 146.027344 156.347656 C 146.027344 158.363281 147.660156 160 149.679688 160 C 151.695313 160 153.332031 158.363281 153.332031 156.347656 C 153.332031 154.328125 151.695313 152.691406 149.679688 152.691406 "/>
</g>
</svg>
