<?xml version="1.0" encoding="UTF-8"?>
<svg xmlns="http://www.w3.org/2000/svg" xmlns:xlink="http://www.w3.org/1999/xlink" width="261.9pt" height="171.9pt" viewBox="0 0 261.9 171.9" version="1.1">
<defs>
<clipPath id="clip1">
  <path d="M 210 129 L 261.898438 129 L 261.898438 171.898438 L 210 171.898438 Z M 210 129 "/>
</clipPath>
<clipPath id="clip2">
  <path d="M 103 129 L 155 129 L 155 171.898438 L 103 171.898438 Z M 103 129 "/>
</clipPath>
<clipPath id="clip3">
  <path d="M 0 129 L 52 129 L 52 171.898438 L 0 171.898438 Z M 0 129 "/>
</clipPath>
</defs>
<g id="surface1">
<path style=" stroke:none;fill-rule:evenodd;fill:rgb(15.696716%,47.459412%,71.289063%);fill-opacity:1;" d="M 114.492188 47.503906 C 114.492188 38.558594 121.746094 31.300781 130.695313 31.300781 C 139.640625 31.300781 146.894531 38.558594 146.894531 47.503906 C 146.894531 56.449219 139.640625 63.695313 130.695313 63.695313 C 121.746094 63.695313 114.492188 56.449219 114.492188 47.503906 Z M 114.492188 47.503906 "/>
<path style=" stroke:none;fill-rule:evenodd;fill:rgb(15.696716%,47.459412%,71.289063%);fill-opacity:1;" d="M 109.410156 60.460938 C 104.347656 54.777344 101.507813 48.675781 101.507813 41.988281 C 101.507813 21.773438 127.226563 5.316406 162.472656 0.128906 C 158.949219 -0.0351563 154.070313 0.226563 150.429688 0.269531 C 113.847656 0.695313 67.90625 14.613281 65.988281 32.042969 C 64.507813 45.511719 92.023438 58.082031 109.410156 60.460938 Z M 109.410156 60.460938 "/>
<path style=" stroke:none;fill-rule:evenodd;fill:rgb(15.696716%,47.459412%,71.289063%);fill-opacity:1;" d="M 152.054688 34.539063 C 157.121094 40.222656 159.964844 46.3125 159.964844 53.003906 C 159.964844 73.21875 134.242188 89.675781 98.996094 94.867188 C 102.519531 95.027344 107.398438 94.761719 111.039063 94.726563 C 147.621094 94.292969 193.566406 80.378906 195.480469 62.949219 C 196.960938 49.480469 169.453125 36.917969 152.0625 34.539063 Z M 152.054688 34.539063 "/>
<path style=" stroke:none;fill-rule:evenodd;fill:rgb(15.696716%,47.459412%,71.289063%);fill-opacity:1;" d="M 51.160156 170.960938 L 72.621094 130.570313 L 84.378906 130.570313 L 105.839844 170.960938 L 93.464844 170.964844 L 90.117188 164.980469 L 66.878906 164.980469 L 63.527344 170.964844 Z M 78.496094 141.425781 L 69.957031 157.460938 L 87.039063 157.460938 Z M 78.496094 141.425781 "/>
<path style=" stroke:none;fill-rule:evenodd;fill:rgb(15.696716%,47.459412%,71.289063%);fill-opacity:1;" d="M 171.039063 170.953125 L 171.039063 155.03125 L 194.621094 155.03125 L 194.621094 170.953125 L 205.863281 170.953125 L 205.867188 130.566406 L 194.621094 130.566406 L 194.621094 146.488281 L 171.046875 146.488281 L 171.046875 130.566406 L 159.804688 130.566406 L 159.804688 170.953125 L 171.046875 170.953125 Z M 171.039063 170.953125 "/>
<g clip-path="url(#clip1)" clip-rule="nonzero">
<path style=" stroke:none;fill-rule:evenodd;fill:rgb(15.696716%,47.459412%,71.289063%);fill-opacity:1;" d="M 260.152344 142.089844 C 256.71875 131.390625 246.035156 129.652344 236.453125 129.738281 C 228.394531 129.808594 211.765625 130.625 211.488281 141.320313 C 212.632813 149.0625 221.851563 150.550781 228.988281 152.410156 C 237.949219 154.746094 246.882813 154.082031 248.070313 158.664063 C 248.871094 161.738281 243.710938 163.691406 240.53125 164.21875 C 236.746094 164.84375 225.511719 164.734375 223.191406 160.042969 L 210.144531 160.042969 C 210.664063 170.703125 228.550781 171.796875 237.480469 171.796875 C 246.355469 171.796875 260.945313 168.726563 261.429688 159.742188 C 261.972656 149.84375 247.398438 147.808594 242.386719 146.796875 C 237.777344 145.867188 224.539063 143.820313 224.578125 140.550781 C 224.621094 137.230469 231.589844 136.558594 235.816406 136.617188 C 241.449219 136.699219 246.691406 137.953125 247.117188 142.089844 Z M 260.152344 142.089844 "/>
</g>
<g clip-path="url(#clip2)" clip-rule="nonzero">
<path style=" stroke:none;fill-rule:evenodd;fill:rgb(15.696716%,47.459412%,71.289063%);fill-opacity:1;" d="M 154.898438 142.261719 C 151.066406 130.730469 139.449219 129.835938 130.558594 129.738281 C 113.488281 129.542969 103.308594 137.632813 103.308594 150.890625 C 103.308594 164.144531 115.109375 171.332031 129.007813 171.796875 L 129.539063 171.8125 L 130.664063 171.8125 C 139.730469 171.664063 153.054688 168 154.695313 158.585938 L 142.277344 158.585938 C 140.015625 162.75 135.105469 164.410156 129.753906 164.21875 C 120.128906 163.875 115.914063 159.109375 115.828125 150.007813 C 115.785156 145.679688 117.953125 136.886719 130.253906 136.617188 C 136.570313 136.484375 141.148438 138.902344 141.859375 142.261719 Z M 154.898438 142.261719 "/>
</g>
<g clip-path="url(#clip3)" clip-rule="nonzero">
<path style=" stroke:none;fill-rule:evenodd;fill:rgb(15.696716%,47.459412%,71.289063%);fill-opacity:1;" d="M 50.042969 142.089844 C 46.617188 131.390625 35.933594 129.652344 26.347656 129.738281 C 18.289063 129.808594 1.664063 130.625 1.390625 141.320313 C 2.527344 149.0625 11.746094 150.550781 18.890625 152.410156 C 27.847656 154.746094 36.777344 154.082031 37.972656 158.664063 C 38.773438 161.738281 33.609375 163.691406 30.421875 164.21875 C 26.648438 164.84375 15.410156 164.734375 13.09375 160.042969 L 0.0390625 160.042969 C 0.558594 170.703125 18.453125 171.796875 27.371094 171.796875 C 36.253906 171.796875 50.839844 168.726563 51.328125 159.742188 C 51.871094 149.84375 37.292969 147.808594 32.285156 146.796875 C 27.667969 145.867188 14.441406 143.820313 14.480469 140.550781 C 14.515625 137.230469 21.484375 136.558594 25.710938 136.617188 C 31.347656 136.699219 36.589844 137.953125 37.015625 142.089844 Z M 50.042969 142.089844 "/>
</g>
</g>
</svg>
