<?xml version="1.0" encoding="utf-8"?>
<!-- Generator: Adobe Illustrator 21.0.0, SVG Export Plug-In . SVG Version: 6.00 Build 0)  -->
<svg version="1.1" id="Layer_1" xmlns="http://www.w3.org/2000/svg" xmlns:xlink="http://www.w3.org/1999/xlink" x="0px" y="0px"
	 viewBox="0 0 2500 2500" style="enable-background:new 0 0 2500 2500;" xml:space="preserve">
<style type="text/css">
	.st0{fill:url(#SVGID_1_);}
	.st1{fill:url(#SVGID_2_);}
	.st2{fill-rule:evenodd;clip-rule:evenodd;fill:#004F7F;}
	.st3{fill:#004F7F;}
</style>
<linearGradient id="SVGID_1_" gradientUnits="userSpaceOnUse" x1="22.9114" y1="1183.7939" x2="539.8492" y2="1183.7939">
	<stop  offset="0.5" style="stop-color:#0070B9"/>
	<stop  offset="0.7" style="stop-color:#004F7F"/>
</linearGradient>
<polygon class="st0" points="539.8,991.9 281.4,939.4 281.4,939.4 281.4,939.4 281.4,939.4 281.4,939.4 22.9,991.9 66.5,1331.1 
	281.4,1428.2 281.4,1428.2 281.4,1428.2 281.4,1428.2 281.4,1428.2 496.2,1331.1 "/>
<linearGradient id="SVGID_2_" gradientUnits="userSpaceOnUse" x1="22.9812" y1="1210.0487" x2="539.7949" y2="1210.0487">
	<stop  offset="0.5" style="stop-color:#FFEE04"/>
	<stop  offset="0.7" style="stop-color:#FDC021"/>
</linearGradient>
<polygon class="st1" points="281.4,1053.9 23,991.9 281.4,1428.2 539.8,991.9 "/>
<polygon class="st2" points="857.1,1351.7 704.5,991.9 815.4,991.9 912.6,1223.1 1009.8,991.9 1119.3,991.9 967.3,1351.7 
	857.1,1351.7 "/>
<polygon class="st2" points="1915.8,1351.7 1915.8,1091.5 1817,1091.5 1817,991.7 2120.1,991.7 2120.1,1091.5 2018.5,1091.5 
	2018.5,1351.7 1915.8,1351.7 "/>
<path class="st3" d="M1218.2,991.4l-151.8,360.4h108l18.6-45.9h165.9l19.7,45.9h108.6l-153.4-360.4H1218.2z M1228,1221.8l48.3-112.8
	l47.2,112.8H1228z"/>
<path class="st3" d="M1792,1107.7c0-66.8-54.2-116.5-120.8-116.5h-183.4v360.4h99.3v-149.3l128.2,149.3h129.5l-119.7-139
	C1766.9,1194.8,1792,1152.5,1792,1107.7z M1642.9,1160.4h-55.8v-87.1l55.8,0.1c29,0,48.6,12.4,48.6,43.5
	C1691.5,1147.9,1672,1160.2,1642.9,1160.4z"/>
<path class="st3" d="M2346.6,991.4h-115.7l-151.8,360.4h108l18.5-45.9h166.1l19.7,45.9H2500L2346.6,991.4z M2240.6,1221.8L2289,1109
	l47.2,112.8H2240.6z"/>
<g>
	<g>
		<path class="st3" d="M2471.1,1026.6c0,21.8-17.1,38.9-39.4,38.9c-22,0-39.6-17.1-39.6-38.9c0-21.3,17.6-38.4,39.6-38.4
			C2454,988.2,2471.1,1005.3,2471.1,1026.6z M2401.9,1026.6c0,17.1,12.7,30.7,30,30.7c16.9,0,29.3-13.6,29.3-30.5
			c0-17.1-12.4-30.9-29.5-30.9S2401.9,1009.8,2401.9,1026.6z M2425.6,1046.8h-8.9v-38.4c3.5-0.7,8.4-1.2,14.8-1.2
			c7.3,0,10.5,1.2,13.4,2.8c2.1,1.6,3.7,4.7,3.7,8.4c0,4.2-3.3,7.5-8,8.9v0.5c3.7,1.4,5.9,4.2,7,9.4c1.2,5.9,1.9,8.2,2.8,9.6h-9.6
			c-1.2-1.4-1.9-4.9-3-9.4c-0.7-4.2-3-6.1-8-6.1h-4.2V1046.8z M2425.9,1025h4.2c4.9,0,8.9-1.6,8.9-5.6c0-3.5-2.6-5.9-8.2-5.9
			c-2.3,0-4,0.2-4.9,0.5V1025z"/>
	</g>
</g>
</svg>
